<svg width="322" height="432" viewBox="0 0 322 432" fill="none" xmlns="http://www.w3.org/2000/svg">
<path d="M230.48 316.52C216.107 316.52 203.04 313.253 191.28 306.72C179.707 300.187 170.56 290.947 163.84 279C157.307 266.867 154.04 252.867 154.04 237C154.04 221.32 157.4 207.507 164.12 195.56C171.027 183.427 180.36 174.187 192.12 167.84C203.88 161.307 217.04 158.04 231.6 158.04C246.16 158.04 259.32 161.307 271.08 167.84C282.84 174.187 292.08 183.333 298.8 195.28C305.707 207.227 309.16 221.133 309.16 237C309.16 252.867 305.613 266.867 298.52 279C291.613 290.947 282.187 300.187 270.24 306.72C258.293 313.253 245.04 316.52 230.48 316.52ZM230.48 294.12C239.627 294.12 248.213 291.973 256.24 287.68C264.267 283.387 270.707 276.947 275.56 268.36C280.6 259.773 283.12 249.32 283.12 237C283.12 224.68 280.693 214.227 275.84 205.64C270.987 197.053 264.64 190.707 256.8 186.6C248.96 182.307 240.467 180.16 231.32 180.16C221.987 180.16 213.4 182.307 205.56 186.6C197.907 190.707 191.747 197.053 187.08 205.64C182.413 214.227 180.08 224.68 180.08 237C180.08 249.507 182.32 260.053 186.8 268.64C191.467 277.227 197.627 283.667 205.28 287.96C212.933 292.067 221.333 294.12 230.48 294.12Z" fill="#272727"/>
<path d="M12.384 237.512C12.384 221.384 15.648 207.272 22.176 195.176C28.704 182.888 37.632 173.384 48.96 166.664C60.48 159.944 73.248 156.584 87.264 156.584C101.088 156.584 113.088 159.56 123.264 165.512C133.44 171.464 141.024 178.952 146.016 187.976V159.176H172.512V317H146.016V287.624C140.832 296.84 133.056 304.52 122.688 310.664C112.512 316.616 100.608 319.592 86.976 319.592C72.96 319.592 60.288 316.136 48.96 309.224C37.632 302.312 28.704 292.616 22.176 280.136C15.648 267.656 12.384 253.448 12.384 237.512ZM146.016 237.8C146.016 225.896 143.616 215.528 138.816 206.696C134.016 197.864 127.488 191.144 119.232 186.536C111.168 181.736 102.24 179.336 92.448 179.336C82.656 179.336 73.728 181.64 65.664 186.248C57.6 190.856 51.168 197.576 46.368 206.408C41.568 215.24 39.168 225.608 39.168 237.512C39.168 249.608 41.568 260.168 46.368 269.192C51.168 278.024 57.6 284.84 65.664 289.64C73.728 294.248 82.656 296.552 92.448 296.552C102.24 296.552 111.168 294.248 119.232 289.64C127.488 284.84 134.016 278.024 138.816 269.192C143.616 260.168 146.016 249.704 146.016 237.8Z" fill="#121212"/>
</svg>
